<svg xmlns="http://www.w3.org/2000/svg" xmlns:xlink="http://www.w3.org/1999/xlink" width="484" zoomAndPan="magnify" viewBox="0 0 363 386.250002" height="515" preserveAspectRatio="xMidYMid meet" version="1.0"><defs><g/><clipPath id="596a6ee877"><path d="M 7.625 141.425781 L 354.949219 141.425781 L 354.949219 385.125 L 7.625 385.125 Z M 7.625 141.425781 " clip-rule="nonzero"/></clipPath><clipPath id="4847826b47"><path d="M 86.433594 158 L 199 158 L 199 227 L 86.433594 227 Z M 86.433594 158 " clip-rule="nonzero"/></clipPath><clipPath id="173783df5b"><path d="M 86.433594 174 L 150 174 L 150 227 L 86.433594 227 Z M 86.433594 174 " clip-rule="nonzero"/></clipPath><clipPath id="03c6ef611f"><path d="M 108 274 L 144 274 L 144 309.015625 L 108 309.015625 Z M 108 274 " clip-rule="nonzero"/></clipPath><clipPath id="e35c5f9984"><path d="M 244 121.878906 L 276.5625 121.878906 L 276.5625 196 L 244 196 Z M 244 121.878906 " clip-rule="nonzero"/></clipPath></defs><g clip-path="url(#596a6ee877)"><path fill="#a9afc4" d="M 181.425781 385.40625 C 85.40625 385.40625 7.625 307.085938 7.625 211.601562 C 7.625 116.117188 85.40625 37.796875 181.425781 37.796875 C 277.445312 37.796875 355.230469 115.582031 355.230469 211.601562 C 355.230469 307.621094 276.910156 385.40625 181.425781 385.40625 Z M 181.425781 48.527344 C 91.304688 48.527344 18.351562 121.480469 18.351562 211.601562 C 18.351562 301.722656 91.304688 374.675781 181.425781 374.675781 C 271.546875 374.675781 344.5 301.722656 344.5 211.601562 C 344.5 121.480469 271.011719 48.527344 181.425781 48.527344 Z M 181.425781 48.527344 " fill-opacity="1" fill-rule="nonzero"/></g><g fill="#e1830e" fill-opacity="1"><g transform="translate(46.771902, 138.246354)"><g><path d="M 1.109375 -4.953125 L 1.671875 -2.96875 L 0.8125 -1.421875 L -8.71875 -6.46875 L -7.8125 -8.0625 C -1.0625 -7.195312 3.375 -8.644531 5.5 -12.40625 C 6.40625 -14 6.722656 -15.472656 6.453125 -16.828125 C 6.179688 -18.191406 5.40625 -19.234375 4.125 -19.953125 C 2.207031 -21.046875 -0.113281 -20.34375 -2.84375 -17.84375 C -5.5625 -15.25 -7.523438 -13.539062 -8.734375 -12.71875 C -9.953125 -11.894531 -11.375 -11.429688 -13 -11.328125 C -14.632812 -11.234375 -16.238281 -11.628906 -17.8125 -12.515625 C -19.976562 -13.742188 -21.304688 -15.691406 -21.796875 -18.359375 C -22.296875 -21.023438 -21.71875 -23.816406 -20.0625 -26.734375 C -18.675781 -29.179688 -16.769531 -31.1875 -14.34375 -32.75 L -14.78125 -34.5 L -13.890625 -36.0625 L -4.953125 -31.21875 L -5.859375 -29.625 C -9.273438 -30.175781 -11.898438 -30.179688 -13.734375 -29.640625 C -15.578125 -29.097656 -16.96875 -28.007812 -17.90625 -26.375 C -18.644531 -25.050781 -18.878906 -23.753906 -18.609375 -22.484375 C -18.347656 -21.222656 -17.664062 -20.28125 -16.5625 -19.65625 C -15.695312 -19.164062 -14.726562 -19.023438 -13.65625 -19.234375 C -12.59375 -19.441406 -10.882812 -20.632812 -8.53125 -22.8125 C -6.207031 -24.925781 -4.4375 -26.375 -3.21875 -27.15625 C -2 -27.9375 -0.640625 -28.359375 0.859375 -28.421875 C 2.367188 -28.492188 3.890625 -28.097656 5.421875 -27.234375 C 7.804688 -25.878906 9.222656 -23.765625 9.671875 -20.890625 C 10.117188 -18.015625 9.429688 -14.972656 7.609375 -11.765625 C 6.066406 -9.035156 3.898438 -6.765625 1.109375 -4.953125 Z M 1.109375 -4.953125 "/></g></g></g><g fill="#e1830e" fill-opacity="1"><g transform="translate(59.032474, 115.943026)"><g><path d="M -1.3125 -18.46875 L 5.109375 -13.109375 C 5.785156 -12.535156 6.472656 -12.328125 7.171875 -12.484375 C 7.867188 -12.648438 8.828125 -13.347656 10.046875 -14.578125 L 11.3125 -13.53125 L 0.9375 -1.125 L -0.328125 -2.171875 C 0.753906 -3.691406 1.328125 -4.765625 1.390625 -5.390625 C 1.453125 -6.015625 1.132812 -6.617188 0.4375 -7.203125 L -15.734375 -20.71875 C -16.515625 -21.375 -17.253906 -21.539062 -17.953125 -21.21875 C -18.648438 -20.894531 -19.578125 -20.226562 -20.734375 -19.21875 L -21.984375 -20.28125 L -11.421875 -32.921875 C -6.503906 -38.816406 -2.140625 -40.171875 1.671875 -36.984375 C 4.046875 -35.003906 5.101562 -32.570312 4.84375 -29.6875 C 4.582031 -26.8125 3.046875 -23.691406 0.234375 -20.328125 Z M -12.890625 -28.140625 L -2.84375 -19.75 L -2.296875 -20.40625 C 0.722656 -24.03125 0.570312 -27.234375 -2.75 -30.015625 C -4.5625 -31.523438 -6.171875 -32.222656 -7.578125 -32.109375 C -8.992188 -32.003906 -10.398438 -31.117188 -11.796875 -29.453125 Z M -12.890625 -28.140625 "/></g></g></g><g fill="#e1830e" fill-opacity="1"><g transform="translate(76.376685, 94.581197)"><g><path d="M 13.671875 -11.0625 L 12.640625 -12.34375 C 14.671875 -14.300781 15.515625 -15.492188 15.171875 -15.921875 C 14.992188 -16.140625 14.738281 -16.335938 14.40625 -16.515625 L 8.515625 -19.765625 L 0.5 -13.28125 C 1.550781 -9.75 2.367188 -7.617188 2.953125 -6.890625 C 3.546875 -6.148438 5.085938 -6.601562 7.578125 -8.25 L 8.609375 -6.96875 L -0.90625 0.734375 L -1.9375 -0.546875 C -1.03125 -1.390625 -0.40625 -2.234375 -0.0625 -3.078125 C 0.269531 -3.929688 0.375 -4.6875 0.25 -5.34375 C 0.132812 -6 -0.789062 -9.253906 -2.53125 -15.109375 L -7.765625 -32.703125 L -4.484375 -35.359375 L 16.0625 -23.921875 C 18.832031 -22.367188 20.457031 -21.535156 20.9375 -21.421875 C 21.425781 -21.304688 22.023438 -21.300781 22.734375 -21.40625 C 23.441406 -21.519531 24.300781 -21.914062 25.3125 -22.59375 L 26.34375 -21.3125 Z M -3.640625 -26.484375 L -0.140625 -15.40625 L 6.546875 -20.8125 Z M -3.640625 -26.484375 "/></g></g></g><g fill="#e1830e" fill-opacity="1"><g transform="translate(99.518591, 75.629314)"><g><path d="M 23.3125 -20.71875 C 23.507812 -14.550781 20.914062 -10.050781 15.53125 -7.21875 C 11.519531 -5.113281 7.554688 -4.632812 3.640625 -5.78125 C -0.273438 -6.9375 -3.3125 -9.566406 -5.46875 -13.671875 C -7.65625 -17.847656 -8.085938 -21.960938 -6.765625 -26.015625 C -5.441406 -30.066406 -2.707031 -33.179688 1.4375 -35.359375 C 4.007812 -36.710938 6.660156 -37.382812 9.390625 -37.375 L 10 -39 L 11.609375 -39.84375 L 16.859375 -30.28125 L 15.234375 -29.421875 C 12.765625 -31.867188 10.515625 -33.441406 8.484375 -34.140625 C 6.453125 -34.835938 4.488281 -34.691406 2.59375 -33.703125 C 0.300781 -32.492188 -0.9375 -30.566406 -1.125 -27.921875 C -1.320312 -25.273438 -0.410156 -22.023438 1.609375 -18.171875 C 3.617188 -14.347656 5.847656 -11.8125 8.296875 -10.5625 C 10.742188 -9.320312 13.253906 -9.375 15.828125 -10.71875 C 19.140625 -12.46875 20.925781 -15.84375 21.1875 -20.84375 Z M 23.3125 -20.71875 "/></g></g></g><g fill="#e1830e" fill-opacity="1"><g transform="translate(124.298308, 62.306895)"><g><path d="M 28.234375 -8.484375 L 1.40625 -0.421875 L 0.9375 -2 C 2.582031 -2.644531 3.628906 -3.203125 4.078125 -3.671875 C 4.523438 -4.148438 4.609375 -4.84375 4.328125 -5.75 L -1.734375 -25.9375 C -1.984375 -26.789062 -2.441406 -27.320312 -3.109375 -27.53125 C -3.773438 -27.738281 -4.976562 -27.71875 -6.71875 -27.46875 L -7.1875 -29.03125 L 18.15625 -36.65625 L 20.34375 -29.359375 L 18.8125 -28.890625 C 18.070312 -29.890625 17.113281 -30.757812 15.9375 -31.5 C 14.769531 -32.238281 13.800781 -32.632812 13.03125 -32.6875 C 12.257812 -32.738281 10.863281 -32.460938 8.84375 -31.859375 L 4.71875 -30.625 L 8.03125 -19.578125 L 10.953125 -20.453125 C 12.546875 -20.929688 13.601562 -21.65625 14.125 -22.625 C 14.65625 -23.601562 14.835938 -25.050781 14.671875 -26.96875 L 16.203125 -27.421875 L 19.796875 -15.484375 L 18.265625 -15.03125 C 17.171875 -17.019531 16.160156 -18.234375 15.234375 -18.671875 C 14.316406 -19.117188 13.070312 -19.109375 11.5 -18.640625 L 8.578125 -17.765625 L 11.0625 -9.515625 C 11.507812 -8.023438 12.023438 -7.070312 12.609375 -6.65625 C 13.203125 -6.238281 14.625 -6.367188 16.875 -7.046875 C 18.800781 -7.628906 20.164062 -8.128906 20.96875 -8.546875 C 21.769531 -8.972656 22.328125 -9.410156 22.640625 -9.859375 C 22.960938 -10.316406 23.359375 -11.429688 23.828125 -13.203125 C 24.296875 -14.984375 24.5625 -16.285156 24.625 -17.109375 L 26.09375 -17.546875 Z M 28.234375 -8.484375 "/></g></g></g><g fill="#e1830e" fill-opacity="1"><g transform="translate(152.397777, 54.416937)"><g/></g></g><g fill="#e1830e" fill-opacity="1"><g transform="translate(161.292961, 52.194586)"><g><path d="M 30 -8.484375 C 27.5 -2.847656 23.207031 0.0664062 17.125 0.265625 C 12.601562 0.421875 8.828125 -0.875 5.796875 -3.625 C 2.773438 -6.375 1.191406 -10.0625 1.046875 -14.6875 C 0.890625 -19.394531 2.289062 -23.285156 5.25 -26.359375 C 8.207031 -29.429688 12.023438 -31.046875 16.703125 -31.203125 C 19.609375 -31.296875 22.289062 -30.738281 24.75 -29.53125 L 26 -30.734375 L 27.8125 -30.796875 L 28.375 -19.890625 L 26.53125 -19.828125 C 25.375 -23.109375 24.03125 -25.503906 22.5 -27.015625 C 20.976562 -28.535156 19.148438 -29.257812 17.015625 -29.1875 C 14.429688 -29.101562 12.472656 -27.914062 11.140625 -25.625 C 9.816406 -23.332031 9.226562 -20.007812 9.375 -15.65625 C 9.519531 -11.34375 10.421875 -8.085938 12.078125 -5.890625 C 13.742188 -3.703125 16.023438 -2.660156 18.921875 -2.765625 C 22.671875 -2.878906 25.75 -5.128906 28.15625 -9.515625 Z M 30 -8.484375 "/></g></g></g><g fill="#e1830e" fill-opacity="1"><g transform="translate(189.248846, 50.761209)"><g><path d="M 17.15625 3.828125 C 12.707031 3.046875 9.207031 0.960938 6.65625 -2.421875 C 4.113281 -5.804688 3.226562 -9.707031 4 -14.125 C 4.820312 -18.820312 6.992188 -22.375 10.515625 -24.78125 C 14.035156 -27.195312 18.09375 -28.003906 22.6875 -27.203125 C 27.207031 -26.410156 30.742188 -24.328125 33.296875 -20.953125 C 35.847656 -17.578125 36.726562 -13.632812 35.9375 -9.125 C 35.144531 -4.539062 33.023438 -1.023438 29.578125 1.421875 C 26.140625 3.867188 22 4.671875 17.15625 3.828125 Z M 22.328125 -25.171875 C 19.847656 -25.597656 17.75 -24.757812 16.03125 -22.65625 C 14.320312 -20.550781 13.085938 -17.304688 12.328125 -12.921875 C 11.578125 -8.640625 11.65625 -5.21875 12.5625 -2.65625 C 13.46875 -0.101562 15.160156 1.382812 17.640625 1.8125 C 20.140625 2.25 22.238281 1.410156 23.9375 -0.703125 C 25.632812 -2.828125 26.863281 -6.070312 27.625 -10.4375 C 28.363281 -14.707031 28.285156 -18.117188 27.390625 -20.671875 C 26.503906 -23.234375 24.816406 -24.734375 22.328125 -25.171875 Z M 22.328125 -25.171875 "/></g></g></g><g fill="#e1830e" fill-opacity="1"><g transform="translate(220.991101, 55.324774)"><g><path d="M 24.03125 10.6875 L 24.703125 9.1875 C 26.484375 9.851562 27.726562 10.113281 28.4375 9.96875 C 29.15625 9.820312 29.695312 9.332031 30.0625 8.5 L 39.125 -11.859375 L 19.078125 7.953125 L 16.671875 6.875 C 16.710938 6.519531 16.875 4.382812 17.15625 0.46875 L 18.578125 -21.359375 L 11.21875 -4.78125 C 10.488281 -3.144531 10.035156 -1.757812 9.859375 -0.625 C 9.679688 0.507812 10.054688 1.5 10.984375 2.34375 C 11.921875 3.1875 12.617188 3.742188 13.078125 4.015625 L 12.40625 5.515625 L 0.671875 0.296875 L 1.34375 -1.203125 C 3.289062 -0.503906 4.734375 -0.394531 5.671875 -0.875 C 6.609375 -1.363281 7.660156 -2.925781 8.828125 -5.5625 L 14.84375 -19.078125 C 15.519531 -20.609375 15.628906 -21.851562 15.171875 -22.8125 C 14.722656 -23.769531 13.78125 -24.632812 12.34375 -25.40625 L 13.015625 -26.90625 L 25.5625 -21.328125 L 24.28125 -0.28125 L 36.453125 -12.4375 C 37.234375 -13.195312 38.035156 -14.191406 38.859375 -15.421875 L 50.9375 -10.046875 L 50.265625 -8.546875 C 48.316406 -9.179688 47.085938 -9.382812 46.578125 -9.15625 C 46.066406 -8.925781 45.660156 -8.472656 45.359375 -7.796875 L 36.78125 11.515625 C 36.488281 12.171875 36.453125 12.796875 36.671875 13.390625 C 36.890625 13.984375 37.835938 14.773438 39.515625 15.765625 L 38.84375 17.265625 Z M 24.03125 10.6875 "/></g></g></g><g fill="#e1830e" fill-opacity="1"><g transform="translate(258.122475, 72.144687)"><g><path d="M 1.15625 0.890625 L 2.15625 -0.40625 C 3.726562 0.613281 4.832031 1.132812 5.46875 1.15625 C 6.101562 1.175781 6.691406 0.832031 7.234375 0.125 L 20.0625 -16.546875 C 20.582031 -17.210938 20.769531 -17.832031 20.625 -18.40625 C 20.476562 -18.976562 19.726562 -20.003906 18.375 -21.484375 L 19.375 -22.78125 L 32.234375 -12.890625 C 38.335938 -8.191406 40.039062 -4.09375 37.34375 -0.59375 C 35.257812 2.113281 31.753906 2.359375 26.828125 0.140625 L 26.609375 0.4375 C 28.753906 2.539062 30.078125 4.640625 30.578125 6.734375 C 31.078125 8.835938 30.679688 10.722656 29.390625 12.390625 C 27.710938 14.566406 25.609375 15.515625 23.078125 15.234375 C 20.546875 14.960938 17.335938 13.335938 13.453125 10.359375 Z M 27.546875 -13.9375 L 20.8125 -5.203125 L 21.65625 -4.546875 C 25.164062 -1.847656 28.113281 -2.046875 30.5 -5.140625 C 32.632812 -7.921875 32.21875 -10.453125 29.25 -12.734375 C 28.539062 -13.285156 27.972656 -13.6875 27.546875 -13.9375 Z M 19.515625 -3.515625 L 12.875 5.125 C 12.65625 5.394531 12.660156 5.898438 12.890625 6.640625 C 13.128906 7.378906 13.695312 8.09375 14.59375 8.78125 C 15.9375 9.8125 17.359375 10.179688 18.859375 9.890625 C 20.359375 9.597656 21.710938 8.664062 22.921875 7.09375 C 25.535156 3.695312 24.953125 0.546875 21.171875 -2.359375 C 20.367188 -2.972656 19.816406 -3.359375 19.515625 -3.515625 Z M 19.515625 -3.515625 "/></g></g></g><g fill="#e1830e" fill-opacity="1"><g transform="translate(281.922751, 90.091913)"><g><path d="M 11.5 13.3125 L 12.734375 12.234375 C 14.773438 14.203125 16.003906 15.003906 16.421875 14.640625 C 16.628906 14.453125 16.816406 14.195312 16.984375 13.875 L 20.015625 7.859375 L 13.28125 0.078125 C 9.789062 1.234375 7.6875 2.117188 6.96875 2.734375 C 6.257812 3.347656 6.765625 4.867188 8.484375 7.296875 L 7.25 8.375 L -0.75 -0.875 L 0.484375 -1.953125 C 1.347656 -1.078125 2.210938 -0.484375 3.078125 -0.171875 C 3.941406 0.140625 4.695312 0.226562 5.34375 0.09375 C 5.988281 -0.0390625 9.210938 -1.078125 15.015625 -3.015625 L 32.4375 -8.828125 L 35.203125 -5.640625 L 24.4375 15.265625 C 22.96875 18.078125 22.179688 19.726562 22.078125 20.21875 C 21.984375 20.707031 22.003906 21.304688 22.140625 22.015625 C 22.285156 22.722656 22.703125 23.570312 23.390625 24.5625 L 22.15625 25.640625 Z M 26.359375 -4.484375 L 15.390625 -0.640625 L 21.015625 5.875 Z M 26.359375 -4.484375 "/></g></g></g><g fill="#e1830e" fill-opacity="1"><g transform="translate(301.595715, 112.686804)"><g><path d="M 32.234375 13.328125 C 33.359375 11.984375 34.226562 10.644531 34.84375 9.3125 C 35.457031 7.976562 35.695312 7 35.5625 6.375 C 35.425781 5.757812 34.890625 4.632812 33.953125 3 L 33.46875 2.140625 L 13.15625 13.78125 C 12.332031 14.25 11.898438 14.828125 11.859375 15.515625 C 11.828125 16.210938 12.171875 17.441406 12.890625 19.203125 L 11.46875 20.015625 L 3.1875 5.578125 L 4.609375 4.765625 C 5.679688 6.335938 6.503906 7.289062 7.078125 7.625 C 7.648438 7.957031 8.375 7.867188 9.25 7.359375 L 29.734375 -4.375 L 29.265625 -5.1875 C 28.285156 -6.882812 27.5625 -7.941406 27.09375 -8.359375 C 26.625 -8.773438 25.632812 -9.046875 24.125 -9.171875 C 22.625 -9.296875 21.066406 -9.226562 19.453125 -8.96875 L 18.640625 -10.390625 L 26.046875 -14.640625 L 40.453125 10.5 L 33.046875 14.75 Z M 32.234375 13.328125 "/></g></g></g><path fill="#dee1ec" d="M 130.871094 224.765625 L 195.179688 160.582031 L 93.363281 177.238281 L 88.304688 182.289062 Z M 130.871094 224.765625 " fill-opacity="1" fill-rule="nonzero"/><path fill="#dee1ec" d="M 208.851562 302.589844 L 213.488281 297.960938 L 230.597656 195.929688 L 166.289062 260.113281 Z M 208.851562 302.589844 " fill-opacity="1" fill-rule="nonzero"/><g clip-path="url(#4847826b47)"><path fill="#5e6175" d="M 130.871094 226.566406 L 86.503906 182.289062 L 92.753906 176.050781 L 198.875 158.691406 L 130.867188 226.566406 Z M 90.109375 182.289062 L 130.871094 222.96875 L 191.480469 162.476562 L 93.980469 178.425781 Z M 90.109375 182.289062 " fill-opacity="1" fill-rule="nonzero"/></g><path fill="#5e6175" d="M 208.851562 304.394531 L 164.484375 260.113281 L 232.511719 192.222656 L 214.679688 298.574219 L 208.847656 304.394531 Z M 168.089844 260.113281 L 208.851562 300.792969 L 212.300781 297.351562 L 228.683594 199.640625 Z M 168.089844 260.113281 " fill-opacity="1" fill-rule="nonzero"/><path fill="#a9afc4" d="M 88.304688 182.289062 L 92.621094 177.980469 C 95.65625 174.949219 100.453125 174.5625 103.933594 177.074219 L 147.316406 208.339844 L 130.859375 224.765625 L 88.300781 182.289062 Z M 88.304688 182.289062 " fill-opacity="1" fill-rule="nonzero"/><path fill="#a9afc4" d="M 166.289062 260.113281 L 182.746094 243.691406 L 214.078125 286.988281 C 216.589844 290.464844 216.207031 295.25 213.171875 298.28125 L 208.855469 302.585938 L 166.292969 260.109375 Z M 166.289062 260.113281 " fill-opacity="1" fill-rule="nonzero"/><g clip-path="url(#173783df5b)"><path fill="#5e6175" d="M 130.871094 226.566406 L 86.503906 182.289062 L 91.71875 177.082031 C 95.21875 173.589844 100.671875 173.15625 104.679688 176.042969 L 149.28125 208.1875 L 130.867188 226.566406 Z M 90.109375 182.289062 L 130.871094 222.96875 L 145.363281 208.5 L 103.191406 178.109375 C 100.199219 175.949219 96.132812 176.277344 93.519531 178.878906 L 90.105469 182.289062 Z M 90.109375 182.289062 " fill-opacity="1" fill-rule="nonzero"/></g><path fill="#5e6175" d="M 208.851562 304.394531 L 164.484375 260.113281 L 182.898438 241.734375 L 215.109375 286.246094 C 218.003906 290.25 217.566406 295.695312 214.066406 299.183594 L 208.851562 304.390625 Z M 168.089844 260.113281 L 208.851562 300.792969 L 212.265625 297.386719 C 214.875 294.78125 215.203125 290.726562 213.039062 287.734375 L 182.585938 245.644531 L 168.089844 260.109375 Z M 168.089844 260.113281 " fill-opacity="1" fill-rule="nonzero"/><path fill="#f5f5f5" d="M 261.417969 149.375 L 265.558594 135.890625 C 267.480469 129.640625 261.605469 123.773438 255.335938 125.6875 L 241.824219 129.824219 C 226.832031 134.410156 213.195312 142.59375 202.109375 153.65625 L 127.554688 228.0625 L 122.761719 248.519531 C 128.121094 253.871094 139.347656 265.074219 142.480469 268.199219 L 162.976562 263.414062 L 237.53125 189.007812 C 248.617188 177.941406 256.816406 164.332031 261.414062 149.371094 Z M 261.417969 149.375 " fill-opacity="1" fill-rule="nonzero"/><path fill="#5e6175" d="M 142.085938 269.601562 L 121.363281 248.921875 L 126.40625 227.421875 C 126.851562 226.976562 200.882812 153.09375 201.214844 152.761719 C 212.40625 141.59375 226.320312 133.238281 241.453125 128.609375 L 254.96875 124.476562 C 262.207031 122.261719 269 129.035156 266.78125 136.265625 L 262.640625 149.753906 C 258 164.855469 249.632812 178.742188 238.4375 189.914062 L 163.628906 264.574219 L 142.089844 269.605469 Z M 124.167969 248.125 L 142.882812 266.804688 L 162.335938 262.261719 L 236.628906 188.113281 C 247.53125 177.234375 255.675781 163.714844 260.199219 149.007812 L 264.339844 135.519531 C 265.960938 130.242188 261 125.289062 255.710938 126.910156 L 242.199219 131.042969 C 227.460938 135.554688 213.910156 143.6875 203.015625 154.566406 L 128.71875 228.710938 L 124.167969 248.128906 Z M 124.167969 248.125 " fill-opacity="1" fill-rule="nonzero"/><path fill="#a9afc4" d="M 237.785156 168.699219 C 247.1875 159.316406 246.613281 159.839844 246.65625 159.847656 C 239.472656 158.054688 233.714844 152.453125 231.871094 145.09375 C 222.832031 154.117188 223.015625 153.988281 223 153.945312 C 224.796875 161.117188 230.410156 166.859375 237.785156 168.699219 Z M 237.785156 168.699219 " fill-opacity="1" fill-rule="nonzero"/><path fill="#5e6175" d="M 238.175781 170.109375 L 237.472656 169.933594 C 229.722656 168 223.703125 161.992188 221.765625 154.253906 L 221.589844 153.554688 L 232.5625 142.605469 L 233.113281 144.785156 C 234.820312 151.605469 240.128906 156.90625 246.964844 158.609375 L 249.148438 159.15625 Z M 224.425781 154.328125 C 226.242188 160.589844 231.128906 165.464844 237.402344 167.28125 L 244.25 160.445312 C 238.199219 158.269531 233.449219 153.53125 231.273438 147.492188 Z M 224.425781 154.328125 " fill-opacity="1" fill-rule="nonzero"/><path fill="#dee1ec" d="M 124.324219 261.589844 L 178.109375 207.914062 C 178.421875 207.601562 178.78125 207.359375 179.191406 207.191406 C 179.601562 207.023438 180.027344 206.9375 180.46875 206.9375 C 180.910156 206.9375 181.335938 207.023438 181.746094 207.191406 C 182.15625 207.359375 182.515625 207.601562 182.828125 207.914062 L 183.050781 208.136719 C 183.363281 208.449219 183.605469 208.808594 183.777344 209.21875 C 183.945312 209.625 184.03125 210.050781 184.03125 210.492188 C 184.03125 210.933594 183.945312 211.359375 183.777344 211.769531 C 183.605469 212.175781 183.363281 212.535156 183.050781 212.847656 L 129.269531 266.527344 C 128.957031 266.839844 128.59375 267.078125 128.183594 267.246094 C 127.777344 267.417969 127.351562 267.5 126.90625 267.5 C 126.464844 267.5 126.039062 267.417969 125.628906 267.246094 C 125.21875 267.078125 124.859375 266.839844 124.546875 266.527344 L 124.324219 266.304688 C 124.011719 265.992188 123.769531 265.628906 123.601562 265.222656 C 123.429688 264.8125 123.347656 264.390625 123.347656 263.949219 C 123.347656 263.503906 123.429688 263.082031 123.601562 262.671875 C 123.769531 262.265625 124.011719 261.902344 124.324219 261.589844 Z M 124.324219 261.589844 " fill-opacity="1" fill-rule="nonzero"/><path fill="#5e6175" d="M 123.644531 267.429688 C 123.644531 267.429688 123.417969 267.203125 123.417969 267.203125 C 121.621094 265.410156 121.621094 262.488281 123.417969 260.695312 L 177.203125 207.019531 C 179.003906 205.21875 181.921875 205.214844 183.726562 207.019531 L 183.953125 207.242188 C 185.753906 209.039062 185.753906 211.953125 183.953125 213.753906 L 130.167969 267.433594 C 128.371094 269.226562 125.445312 269.226562 123.644531 267.433594 Z M 125.445312 265.628906 C 126.246094 266.433594 127.558594 266.4375 128.363281 265.628906 L 182.148438 211.953125 C 182.957031 211.148438 182.957031 209.84375 182.148438 209.039062 L 181.921875 208.816406 C 181.117188 208.011719 179.8125 208.011719 179.003906 208.816406 L 125.21875 262.492188 C 124.417969 263.292969 124.417969 264.605469 125.21875 265.40625 Z M 125.445312 265.628906 " fill-opacity="1" fill-rule="nonzero"/><path fill="#dee1ec" d="M 192.722656 249.066406 L 192.964844 245.84375 C 193.214844 242.5 191.992188 239.210938 189.617188 236.839844 C 189.574219 236.796875 190.355469 236.101562 161.375 265.023438 L 171.03125 274.660156 L 189.375 256.355469 C 191.328125 254.402344 192.515625 251.816406 192.722656 249.066406 Z M 192.722656 249.066406 " fill-opacity="1" fill-rule="nonzero"/><path fill="#5e6175" d="M 171.027344 276.460938 L 159.570312 265.023438 L 189.617188 235.039062 L 190.515625 235.9375 C 193.160156 238.574219 194.515625 242.21875 194.234375 245.9375 L 193.992188 249.160156 C 193.761719 252.210938 192.441406 255.085938 190.273438 257.253906 Z M 163.171875 265.023438 L 171.027344 272.863281 L 188.46875 255.457031 C 190.207031 253.722656 191.265625 251.417969 191.445312 248.972656 L 191.6875 245.75 C 191.878906 243.199219 191.113281 240.6875 189.554688 238.695312 L 163.171875 265.027344 Z M 163.171875 265.023438 " fill-opacity="1" fill-rule="nonzero"/><path fill="#e08326" d="M 170.910156 274.546875 L 168.140625 277.3125 C 166.703125 278.746094 164.367188 278.746094 162.925781 277.3125 L 161.457031 278.777344 C 159.59375 280.632812 157.070312 281.675781 154.441406 281.675781 L 151.722656 281.675781 C 151.722656 281.675781 153.839844 279.566406 153.839844 279.566406 C 155.488281 277.921875 156.414062 275.6875 156.414062 273.359375 C 156.414062 271.03125 157.316406 268.824219 158.988281 267.152344 L 161.242188 264.902344 L 170.90625 274.546875 Z M 170.910156 274.546875 " fill-opacity="1" fill-rule="nonzero"/><path fill="#5e6175" d="M 161.363281 265.023438 L 166.28125 260.113281 L 175.945312 269.753906 L 171.023438 274.664062 Z M 161.363281 265.023438 " fill-opacity="1" fill-rule="nonzero"/><path fill="#5e6175" d="M 171.027344 276.460938 L 159.5625 265.019531 L 166.28125 258.3125 L 177.746094 269.753906 Z M 163.167969 265.019531 L 171.027344 272.863281 L 174.144531 269.75 L 166.285156 261.90625 Z M 163.167969 265.019531 " fill-opacity="1" fill-rule="nonzero"/><path fill="#dee1ec" d="M 154.191406 201.488281 C 151.804688 199.105469 148.421875 197.789062 144.871094 198.09375 L 141.949219 198.34375 C 139.183594 198.582031 136.59375 199.78125 134.628906 201.738281 L 116.289062 220.042969 L 125.945312 229.679688 L 154.1875 201.492188 Z M 154.191406 201.488281 " fill-opacity="1" fill-rule="nonzero"/><path fill="#5e6175" d="M 125.949219 231.476562 L 114.492188 220.042969 L 133.734375 200.839844 C 135.902344 198.675781 138.785156 197.335938 141.847656 197.074219 L 144.769531 196.824219 C 148.609375 196.5 152.375 197.871094 155.101562 200.589844 L 156 201.488281 L 125.953125 231.476562 Z M 118.097656 220.042969 L 125.949219 227.882812 L 152.335938 201.546875 C 150.257812 199.925781 147.640625 199.136719 144.980469 199.367188 L 142.058594 199.617188 C 139.597656 199.824219 137.28125 200.898438 135.535156 202.640625 L 118.101562 220.042969 Z M 118.097656 220.042969 " fill-opacity="1" fill-rule="nonzero"/><path fill="#e08326" d="M 116.289062 220.035156 L 113.519531 222.796875 C 112.082031 224.234375 112.082031 226.566406 113.519531 228.003906 L 112.050781 229.472656 C 110.191406 231.328125 109.144531 233.847656 109.144531 236.46875 L 109.144531 239.183594 C 109.144531 239.183594 111.261719 237.074219 111.261719 237.074219 C 112.910156 235.425781 115.148438 234.503906 117.480469 234.503906 C 119.777344 234.503906 122.023438 233.601562 123.699219 231.933594 L 125.953125 229.683594 L 116.289062 220.039062 Z M 116.289062 220.035156 " fill-opacity="1" fill-rule="nonzero"/><path fill="#5e6175" d="M 116.289062 220.035156 L 121.210938 215.125 L 130.871094 224.769531 L 125.953125 229.679688 Z M 116.289062 220.035156 " fill-opacity="1" fill-rule="nonzero"/><path fill="#5e6175" d="M 125.949219 231.476562 L 114.484375 220.035156 L 121.207031 213.328125 L 132.671875 224.769531 Z M 118.089844 220.035156 L 125.949219 227.875 L 129.070312 224.765625 L 121.210938 216.921875 Z M 118.089844 220.035156 " fill-opacity="1" fill-rule="nonzero"/><path fill="#5e6175" d="M 87.402344 267.578125 L 107.449219 247.570312 L 109.253906 249.371094 L 89.207031 269.378906 Z M 87.402344 267.578125 " fill-opacity="1" fill-rule="nonzero"/><g clip-path="url(#03c6ef611f)"><path fill="#5e6175" d="M 108.660156 307.214844 L 141.441406 274.496094 L 143.242188 276.296875 L 110.460938 309.011719 Z M 108.660156 307.214844 " fill-opacity="1" fill-rule="nonzero"/></g><path fill="#5e6175" d="M 97.425781 293.570312 L 107.410156 283.605469 L 109.210938 285.40625 L 99.230469 295.367188 Z M 97.425781 293.570312 " fill-opacity="1" fill-rule="nonzero"/><path fill="#5e6175" d="M 92.667969 223.867188 L 101.25 215.300781 L 103.050781 217.097656 L 94.46875 225.664062 Z M 92.667969 223.867188 " fill-opacity="1" fill-rule="nonzero"/><path fill="#5e6175" d="M 162.996094 298.089844 L 172.285156 288.816406 L 174.089844 290.617188 L 164.796875 299.890625 Z M 162.996094 298.089844 " fill-opacity="1" fill-rule="nonzero"/><path fill="#e1830e" d="M 140.5 138.492188 C 147.78125 138.492188 153.6875 132.601562 153.6875 125.332031 C 153.6875 132.601562 159.589844 138.492188 166.871094 138.492188 C 163.230469 138.492188 159.933594 139.964844 157.546875 142.347656 C 155.160156 144.730469 153.6875 148.019531 153.6875 151.652344 C 153.6875 144.386719 147.78125 138.492188 140.5 138.492188 " fill-opacity="1" fill-rule="nonzero"/><path fill="#e1830e" d="M 224.007812 281.675781 C 227.648438 281.675781 230.601562 278.730469 230.601562 275.097656 C 230.601562 278.730469 233.554688 281.675781 237.195312 281.675781 C 235.371094 281.675781 233.722656 282.414062 232.535156 283.605469 C 231.34375 284.796875 230.601562 286.441406 230.601562 288.257812 C 230.601562 284.625 227.648438 281.675781 224.007812 281.675781 " fill-opacity="1" fill-rule="nonzero"/><g clip-path="url(#e35c5f9984)"><path fill="#a9afc4" d="M 246.25 195.800781 L 244.457031 193.992188 L 244.527344 193.925781 L 246.335938 195.71875 L 246.25 195.804688 Z M 249.304688 192.617188 L 247.429688 190.898438 C 247.992188 190.285156 248.558594 189.652344 249.101562 189.023438 L 251.027344 190.695312 C 250.464844 191.339844 249.886719 191.984375 249.304688 192.617188 Z M 253.777344 187.398438 L 251.785156 185.8125 C 252.308594 185.160156 252.828125 184.488281 253.328125 183.828125 L 255.363281 185.363281 C 254.847656 186.039062 254.316406 186.722656 253.777344 187.398438 Z M 257.882812 181.882812 L 255.785156 180.433594 C 256.257812 179.753906 256.730469 179.050781 257.183594 178.347656 L 259.316406 179.738281 C 258.851562 180.457031 258.363281 181.175781 257.878906 181.875 Z M 261.59375 176.097656 L 259.402344 174.796875 C 259.828125 174.085938 260.253906 173.351562 260.660156 172.621094 L 262.886719 173.863281 C 262.464844 174.613281 262.03125 175.363281 261.59375 176.097656 Z M 264.902344 170.074219 L 262.628906 168.929688 C 263 168.191406 263.371094 167.433594 263.730469 166.671875 L 266.035156 167.761719 C 265.664062 168.539062 265.285156 169.320312 264.898438 170.078125 Z M 267.792969 163.835938 L 265.445312 162.847656 C 265.765625 162.082031 266.085938 161.300781 266.390625 160.523438 L 268.765625 161.449219 C 268.453125 162.246094 268.125 163.046875 267.792969 163.835938 Z M 270.25 157.417969 L 267.835938 156.59375 C 268.101562 155.8125 268.367188 155.011719 268.621094 154.203125 L 271.050781 154.96875 C 270.792969 155.789062 270.519531 156.613281 270.242188 157.414062 Z M 272.320312 150.917969 L 269.886719 150.164062 L 270.644531 147.734375 L 273.078125 148.488281 Z M 274.34375 144.441406 L 271.910156 143.6875 L 272.664062 141.257812 L 275.097656 142.011719 Z M 276.25 137.753906 L 273.734375 137.335938 C 273.863281 136.5625 273.9375 135.773438 273.949219 134.996094 L 276.496094 135.035156 C 276.484375 135.945312 276.398438 136.859375 276.25 137.753906 Z M 273.519531 131.109375 C 273.335938 130.347656 273.09375 129.59375 272.800781 128.867188 L 275.164062 127.914062 C 275.507812 128.757812 275.789062 129.632812 276 130.519531 L 273.523438 131.113281 Z M 270.886719 125.457031 C 270.421875 124.828125 269.902344 124.226562 269.347656 123.675781 L 271.148438 121.878906 C 271.792969 122.523438 272.394531 123.21875 272.933594 123.945312 L 270.882812 125.457031 Z M 270.886719 125.457031 " fill-opacity="1" fill-rule="nonzero"/></g><g fill="#5e6175" fill-opacity="1"><g transform="translate(129.287637, 186.680879)"><g><path d="M 1.640625 -0.234375 L 1.28125 -0.375 L 1.0625 -0.671875 L 0.5 -4.109375 L 0.40625 -4.390625 L 0.1875 -5.984375 L 0.109375 -6.28125 L -0.296875 -8.78125 L -0.375 -9.046875 L -0.421875 -9.65625 L -0.640625 -10.609375 L -0.515625 -10.953125 L -0.203125 -11.171875 L 0.234375 -11.109375 L 0.640625 -10.90625 L 1.125 -10.578125 L 1.40625 -10.390625 L 1.890625 -9.96875 L 2.140625 -9.828125 L 3.8125 -8.484375 L 4.21875 -8.234375 L 4.5625 -7.9375 L 4.8125 -7.75 L 5.046875 -7.53125 L 5.390625 -7.453125 L 5.640625 -7.6875 L 6.421875 -8.796875 L 6.59375 -9.125 L 7.71875 -10.734375 L 7.875 -11.046875 L 8.046875 -11.265625 L 8.203125 -11.546875 L 8.734375 -12.328125 L 9.03125 -12.578125 L 9.46875 -12.8125 L 9.8125 -12.6875 L 10.046875 -12.40625 L 10.078125 -12.109375 L 10.203125 -11.453125 L 10.21875 -11.203125 L 10.375 -10.53125 L 10.40625 -10.234375 L 10.671875 -8.703125 L 10.703125 -8.359375 L 11.53125 -3.6875 L 11.546875 -3.390625 L 11.734375 -2.5625 L 11.625 -2.09375 L 11.34375 -1.875 L 9.421875 -1.609375 L 9.09375 -1.65625 L 8.90625 -1.984375 L 8.859375 -2.203125 L 8.71875 -2.921875 L 8.703125 -3.1875 L 8.578125 -3.765625 L 8.5 -4.375 L 8.34375 -5 L 8.234375 -5.859375 L 8.0625 -6.078125 L 7.875 -5.953125 L 7.375 -5.1875 L 7.171875 -4.984375 L 6.8125 -4.40625 L 6.65625 -4.1875 L 6.484375 -3.921875 L 6.21875 -3.625 L 5.875 -3.578125 L 5.5 -3.765625 L 5.015625 -4.09375 L 4.765625 -4.3125 L 4.03125 -4.828125 L 3.8125 -5.03125 L 3.5 -5.203125 L 3.34375 -5.25 L 3.21875 -5.078125 L 3.328125 -4.46875 L 3.421875 -4.125 L 3.484375 -3.5625 L 3.546875 -3.234375 L 3.578125 -2.75 L 3.90625 -1.125 L 3.78125 -0.8125 L 3.375 -0.5625 L 2.875 -0.5 L 2.53125 -0.390625 L 1.921875 -0.328125 Z M 1.640625 -0.234375 "/></g></g></g><g fill="#5e6175" fill-opacity="1"><g transform="translate(142.280868, 184.481337)"><g><path d="M 1.09375 -0.6875 L 1.015625 -0.953125 L 0.46875 -4.375 L 0.34375 -4.84375 L -0.09375 -7.8125 L -0.265625 -8.453125 L -0.375 -9.390625 L -0.4375 -9.65625 L -0.484375 -10 L -0.5625 -10.265625 L -0.625 -10.609375 L -0.515625 -10.953125 L -0.203125 -11.171875 L 1.671875 -11.453125 L 1.953125 -11.5625 L 2.578125 -11.59375 L 2.84375 -11.703125 L 4.4375 -11.921875 L 5.078125 -11.890625 L 5.34375 -11.828125 L 5.65625 -11.75 L 5.953125 -11.640625 L 6.484375 -11.390625 L 6.734375 -11.21875 L 7.375 -10.578125 L 7.53125 -10.28125 L 7.75 -9.75 L 7.875 -9.25 L 7.9375 -8.71875 L 7.84375 -8.140625 L 7.65625 -7.484375 L 7.59375 -7.171875 L 7.8125 -6.828125 L 8.09375 -6.65625 L 8.34375 -6.46875 L 8.71875 -5.859375 L 9 -5.34375 L 9.171875 -4.078125 L 9.09375 -3.75 L 9.046875 -3.4375 L 8.953125 -3.125 L 8.625 -2.46875 L 8.109375 -1.875 L 7.84375 -1.6875 L 7.015625 -1.28125 L 6.734375 -1.1875 L 5.140625 -0.84375 L 4.84375 -0.828125 L 2.578125 -0.421875 L 2.109375 -0.390625 L 1.609375 -0.25 L 1.28125 -0.390625 Z M 3.234375 -7.375 L 4.421875 -7.625 L 4.84375 -7.859375 L 5.046875 -8.09375 L 5.078125 -8.546875 L 4.953125 -9.015625 L 4.78125 -9.25 L 4.515625 -9.3125 L 2.90625 -9.15625 L 2.625 -8.921875 L 2.53125 -8.453125 L 2.609375 -7.90625 L 2.859375 -7.515625 Z M 3.875 -3.21875 L 5.078125 -3.390625 L 5.9375 -3.609375 L 6.171875 -3.84375 L 6.296875 -4.078125 L 6.296875 -4.53125 L 6.140625 -4.90625 L 5.9375 -5.15625 L 5.65625 -5.21875 L 4.1875 -5.109375 L 3.859375 -5.03125 L 3.53125 -5.015625 L 3.3125 -4.765625 L 3.203125 -4.5 L 3.328125 -3.546875 L 3.578125 -3.296875 Z M 3.875 -3.21875 "/></g></g></g><g fill="#5e6175" fill-opacity="1"><g transform="translate(152.538686, 182.744856)"><g><path d="M 1.640625 -0.234375 L 1.28125 -0.375 L 1.0625 -0.671875 L 0.5 -4.109375 L 0.40625 -4.390625 L 0.1875 -5.984375 L 0.109375 -6.28125 L -0.296875 -8.78125 L -0.375 -9.046875 L -0.421875 -9.65625 L -0.640625 -10.609375 L -0.515625 -10.953125 L -0.203125 -11.171875 L 0.234375 -11.109375 L 0.640625 -10.90625 L 1.125 -10.578125 L 1.40625 -10.390625 L 1.890625 -9.96875 L 2.140625 -9.828125 L 3.8125 -8.484375 L 4.21875 -8.234375 L 4.5625 -7.9375 L 4.8125 -7.75 L 5.046875 -7.53125 L 5.390625 -7.453125 L 5.640625 -7.6875 L 6.421875 -8.796875 L 6.59375 -9.125 L 7.71875 -10.734375 L 7.875 -11.046875 L 8.046875 -11.265625 L 8.203125 -11.546875 L 8.734375 -12.328125 L 9.03125 -12.578125 L 9.46875 -12.8125 L 9.8125 -12.6875 L 10.046875 -12.40625 L 10.078125 -12.109375 L 10.203125 -11.453125 L 10.21875 -11.203125 L 10.375 -10.53125 L 10.40625 -10.234375 L 10.671875 -8.703125 L 10.703125 -8.359375 L 11.53125 -3.6875 L 11.546875 -3.390625 L 11.734375 -2.5625 L 11.625 -2.09375 L 11.34375 -1.875 L 9.421875 -1.609375 L 9.09375 -1.65625 L 8.90625 -1.984375 L 8.859375 -2.203125 L 8.71875 -2.921875 L 8.703125 -3.1875 L 8.578125 -3.765625 L 8.5 -4.375 L 8.34375 -5 L 8.234375 -5.859375 L 8.0625 -6.078125 L 7.875 -5.953125 L 7.375 -5.1875 L 7.171875 -4.984375 L 6.8125 -4.40625 L 6.65625 -4.1875 L 6.484375 -3.921875 L 6.21875 -3.625 L 5.875 -3.578125 L 5.5 -3.765625 L 5.015625 -4.09375 L 4.765625 -4.3125 L 4.03125 -4.828125 L 3.8125 -5.03125 L 3.5 -5.203125 L 3.34375 -5.25 L 3.21875 -5.078125 L 3.328125 -4.46875 L 3.421875 -4.125 L 3.484375 -3.5625 L 3.546875 -3.234375 L 3.578125 -2.75 L 3.90625 -1.125 L 3.78125 -0.8125 L 3.375 -0.5625 L 2.875 -0.5 L 2.53125 -0.390625 L 1.921875 -0.328125 Z M 1.640625 -0.234375 "/></g></g></g><g fill="#5e6175" fill-opacity="1"><g transform="translate(210.987781, 220.91132)"><g><path d="M -0.328125 1.59375 L -0.0625 1.34375 L 0.28125 1.21875 L 3.703125 1.828125 L 4.015625 1.84375 L 5.578125 2.171875 L 5.890625 2.1875 L 8.375 2.625 L 8.671875 2.640625 L 9.25 2.796875 L 10.21875 2.921875 L 10.515625 3.140625 L 10.609375 3.5 L 10.40625 3.90625 L 10.078125 4.234375 L 9.609375 4.5625 L 9.34375 4.78125 L 8.78125 5.09375 L 8.546875 5.28125 L 6.75 6.421875 L 6.375 6.71875 L 5.96875 6.9375 L 5.734375 7.09375 L 5.421875 7.25 L 5.25 7.5625 L 5.390625 7.875 L 6.171875 8.984375 L 6.421875 9.25 L 7.5625 10.828125 L 7.8125 11.09375 L 7.96875 11.328125 L 8.171875 11.578125 L 8.734375 12.328125 L 8.890625 12.6875 L 8.953125 13.171875 L 8.71875 13.46875 L 8.359375 13.59375 L 8.078125 13.515625 L 7.421875 13.421875 L 7.15625 13.359375 L 6.5 13.28125 L 6.203125 13.21875 L 4.671875 12.96875 L 4.328125 12.875 L -0.34375 12.109375 L -0.640625 12.015625 L -1.46875 11.921875 L -1.875 11.65625 L -2 11.296875 L -1.609375 9.421875 L -1.453125 9.109375 L -1.078125 9.0625 L -0.859375 9.109375 L -0.125 9.1875 L 0.125 9.265625 L 0.71875 9.34375 L 1.3125 9.484375 L 1.953125 9.53125 L 2.796875 9.71875 L 3.0625 9.625 L 3 9.40625 L 2.4375 8.65625 L 2.328125 8.421875 L 1.890625 7.890625 L 1.734375 7.671875 L 1.546875 7.40625 L 1.359375 7.0625 L 1.4375 6.734375 L 1.71875 6.421875 L 2.203125 6.09375 L 2.484375 5.921875 L 3.21875 5.40625 L 3.484375 5.265625 L 3.75 5.03125 L 3.84375 4.890625 L 3.71875 4.71875 L 3.09375 4.625 L 2.765625 4.59375 L 2.203125 4.46875 L 1.875 4.421875 L 1.40625 4.296875 L -0.234375 4.0625 L -0.484375 3.828125 L -0.59375 3.375 L -0.484375 2.875 L -0.46875 2.53125 L -0.328125 1.921875 Z M -0.328125 1.59375 "/></g></g></g><g fill="#5e6175" fill-opacity="1"><g transform="translate(208.753736, 233.898664)"><g><path d="M 0.28125 1.25 L 0.5625 1.265625 L 3.96875 1.890625 L 4.46875 1.921875 L 7.40625 2.5 L 8.0625 2.5625 L 8.96875 2.75 L 9.25 2.78125 L 9.59375 2.859375 L 9.875 2.875 L 10.203125 2.9375 L 10.515625 3.140625 L 10.609375 3.5 L 10.25 5.390625 L 10.265625 5.65625 L 10.09375 6.265625 L 10.09375 6.5625 L 9.78125 8.15625 L 9.53125 8.734375 L 9.390625 8.96875 L 9.203125 9.234375 L 9 9.484375 L 8.609375 9.875 L 8.359375 10.078125 L 7.53125 10.46875 L 7.203125 10.515625 L 6.609375 10.53125 L 6.125 10.484375 L 5.59375 10.375 L 5.078125 10.109375 L 4.515625 9.703125 L 4.25 9.546875 L 3.859375 9.640625 L 3.59375 9.859375 L 3.328125 10 L 2.640625 10.171875 L 2.0625 10.265625 L 0.796875 10.015625 L 0.53125 9.828125 L 0.25 9.6875 L -0.015625 9.46875 L -0.53125 8.96875 L -0.921875 8.25 L -1.015625 7.96875 L -1.109375 7.03125 L -1.109375 6.765625 L -0.921875 5.140625 L -0.8125 4.828125 L -0.453125 2.578125 L -0.328125 2.109375 L -0.296875 1.59375 L -0.046875 1.34375 Z M 5.890625 5.5 L 5.734375 6.703125 L 5.8125 7.15625 L 5.9375 7.4375 L 6.375 7.625 L 6.875 7.65625 L 7.125 7.578125 L 7.296875 7.34375 L 7.671875 5.78125 L 7.546875 5.4375 L 7.140625 5.171875 L 6.59375 5.09375 L 6.140625 5.1875 Z M 1.75 4.71875 L 1.5 5.921875 L 1.4375 6.796875 L 1.5625 7.09375 L 1.75 7.296875 L 2.1875 7.453125 L 2.578125 7.421875 L 2.890625 7.3125 L 3.046875 7.078125 L 3.4375 5.625 L 3.46875 5.3125 L 3.5625 5 L 3.40625 4.703125 L 3.15625 4.515625 L 2.25 4.3125 L 1.921875 4.46875 Z M 1.75 4.71875 "/></g></g></g><g fill="#5e6175" fill-opacity="1"><g transform="translate(206.990016, 244.151834)"><g><path d="M -0.328125 1.59375 L -0.0625 1.34375 L 0.28125 1.21875 L 3.703125 1.828125 L 4.015625 1.84375 L 5.578125 2.171875 L 5.890625 2.1875 L 8.375 2.625 L 8.671875 2.640625 L 9.25 2.796875 L 10.21875 2.921875 L 10.515625 3.140625 L 10.609375 3.5 L 10.40625 3.90625 L 10.078125 4.234375 L 9.609375 4.5625 L 9.34375 4.78125 L 8.78125 5.09375 L 8.546875 5.28125 L 6.75 6.421875 L 6.375 6.71875 L 5.96875 6.9375 L 5.734375 7.09375 L 5.421875 7.25 L 5.25 7.5625 L 5.390625 7.875 L 6.171875 8.984375 L 6.421875 9.25 L 7.5625 10.828125 L 7.8125 11.09375 L 7.96875 11.328125 L 8.171875 11.578125 L 8.734375 12.328125 L 8.890625 12.6875 L 8.953125 13.171875 L 8.71875 13.46875 L 8.359375 13.59375 L 8.078125 13.515625 L 7.421875 13.421875 L 7.15625 13.359375 L 6.5 13.28125 L 6.203125 13.21875 L 4.671875 12.96875 L 4.328125 12.875 L -0.34375 12.109375 L -0.640625 12.015625 L -1.46875 11.921875 L -1.875 11.65625 L -2 11.296875 L -1.609375 9.421875 L -1.453125 9.109375 L -1.078125 9.0625 L -0.859375 9.109375 L -0.125 9.1875 L 0.125 9.265625 L 0.71875 9.34375 L 1.3125 9.484375 L 1.953125 9.53125 L 2.796875 9.71875 L 3.0625 9.625 L 3 9.40625 L 2.4375 8.65625 L 2.328125 8.421875 L 1.890625 7.890625 L 1.734375 7.671875 L 1.546875 7.40625 L 1.359375 7.0625 L 1.4375 6.734375 L 1.71875 6.421875 L 2.203125 6.09375 L 2.484375 5.921875 L 3.21875 5.40625 L 3.484375 5.265625 L 3.75 5.03125 L 3.84375 4.890625 L 3.71875 4.71875 L 3.09375 4.625 L 2.765625 4.59375 L 2.203125 4.46875 L 1.875 4.421875 L 1.40625 4.296875 L -0.234375 4.0625 L -0.484375 3.828125 L -0.59375 3.375 L -0.484375 2.875 L -0.46875 2.53125 L -0.328125 1.921875 Z M -0.328125 1.59375 "/></g></g></g></svg>